<?xml version="1.0" standalone="no"?><!DOCTYPE svg PUBLIC "-//W3C//DTD SVG 1.1//EN" "http://www.w3.org/Graphics/SVG/1.1/DTD/svg11.dtd"><svg width="500" height="1000" version="1.1" xmlns="http://www.w3.org/2000/svg" xmlns:xlink="http://www.w3.org/1999/xlink"><defs xmlns="http://www.w3.org/1999/xhtml"><style type="text/css"><![CDATA[
text { font-family: sans-serif; font-size: 10px; }]]></style></defs><rect class="guide" x="0" y="6.5" width="500" height="13" fill="#eee"/><rect class="guide" x="0" y="32.5" width="500" height="13" fill="#eee"/><rect class="guide" x="0" y="58.5" width="500" height="13" fill="#eee"/><rect class="guide" x="0" y="84.5" width="500" height="13" fill="#eee"/><rect class="guide" x="0" y="110.5" width="500" height="13" fill="#eee"/><rect class="guide" x="0" y="136.5" width="500" height="13" fill="#eee"/><rect class="guide" x="0" y="162.5" width="500" height="13" fill="#eee"/><rect class="guide" x="0" y="188.5" width="500" height="13" fill="#eee"/><rect class="guide" x="0" y="214.5" width="500" height="13" fill="#eee"/><rect class="guide" x="0" y="240.5" width="500" height="13" fill="#eee"/><rect class="guide" x="0" y="266.5" width="500" height="13" fill="#eee"/><rect class="guide" x="0" y="292.5" width="500" height="13" fill="#eee"/><rect class="guide" x="0" y="318.5" width="500" height="13" fill="#eee"/><rect class="guide" x="0" y="344.5" width="500" height="13" fill="#eee"/><rect class="guide" x="0" y="370.5" width="500" height="13" fill="#eee"/><rect class="guide" x="0" y="396.5" width="500" height="13" fill="#eee"/><rect class="guide" x="0" y="422.5" width="500" height="13" fill="#eee"/><rect class="guide" x="0" y="448.5" width="500" height="13" fill="#eee"/><rect class="guide" x="0" y="474.5" width="500" height="13" fill="#eee"/><rect class="guide" x="0" y="500.5" width="500" height="13" fill="#eee"/><rect class="guide" x="0" y="526.5" width="500" height="13" fill="#eee"/><rect class="guide" x="0" y="552.5" width="500" height="13" fill="#eee"/><rect class="guide" x="0" y="578.5" width="500" height="13" fill="#eee"/><rect class="guide" x="0" y="604.5" width="500" height="13" fill="#eee"/><rect class="guide" x="0" y="630.5" width="500" height="13" fill="#eee"/><g class="links"><line stroke="#999" stroke-opacity="0.5" x1="223.84190404057784" y1="13" x2="223.84190404057784" y2="13"/><line stroke="#999" stroke-opacity="0.5" x1="223.84190404057784" y1="13" x2="176.48414156159055" y2="26"/><line stroke="#999" stroke-opacity="0.5" x1="223.84190404057784" y1="13" x2="205.5145715726434" y2="39"/><line stroke="#999" stroke-opacity="0.5" x1="223.84190404057784" y1="13" x2="189.1437111144486" y2="65"/><line stroke="#999" stroke-opacity="0.5" x1="223.84190404057784" y1="13" x2="263.58096496226426" y2="78"/><line stroke="#999" stroke-opacity="0.5" x1="176.48414156159055" y1="26" x2="176.48414156159055" y2="26"/><line stroke="#999" stroke-opacity="0.5" x1="176.48414156159055" y1="26" x2="205.5145715726434" y2="39"/><line stroke="#999" stroke-opacity="0.5" x1="176.48414156159055" y1="26" x2="189.1437111144486" y2="65"/><line stroke="#999" stroke-opacity="0.5" x1="205.5145715726434" y1="39" x2="205.5145715726434" y2="39"/><line stroke="#999" stroke-opacity="0.5" x1="205.5145715726434" y1="39" x2="189.1437111144486" y2="65"/><line stroke="#999" stroke-opacity="0.5" x1="314.5015831074116" y1="52" x2="314.5015831074116" y2="52"/><line stroke="#999" stroke-opacity="0.5" x1="314.5015831074116" y1="52" x2="263.58096496226426" y2="78"/><line stroke="#999" stroke-opacity="0.5" x1="314.5015831074116" y1="52" x2="340.8262494148169" y2="91"/><line stroke="#999" stroke-opacity="0.5" x1="189.1437111144486" y1="65" x2="189.1437111144486" y2="65"/><line stroke="#999" stroke-opacity="0.5" x1="263.58096496226426" y1="78" x2="263.58096496226426" y2="78"/><line stroke="#999" stroke-opacity="0.5" x1="340.8262494148169" y1="91" x2="340.8262494148169" y2="91"/><line stroke="#999" stroke-opacity="0.5" x1="4.9441437282316985" y1="104" x2="4.9441437282316985" y2="104"/><line stroke="#999" stroke-opacity="0.5" x1="402.2750507112104" y1="117" x2="402.2750507112104" y2="117"/><line stroke="#999" stroke-opacity="0.5" x1="402.2750507112104" y1="117" x2="361.46234443815615" y2="130"/><line stroke="#999" stroke-opacity="0.5" x1="402.2750507112104" y1="117" x2="432.325460524094" y2="143"/><line stroke="#999" stroke-opacity="0.5" x1="361.46234443815615" y1="130" x2="361.46234443815615" y2="130"/><line stroke="#999" stroke-opacity="0.5" x1="361.46234443815615" y1="130" x2="359.02234070140696" y2="156"/><line stroke="#999" stroke-opacity="0.5" x1="432.325460524094" y1="143" x2="432.325460524094" y2="143"/><line stroke="#999" stroke-opacity="0.5" x1="359.02234070140696" y1="156" x2="359.02234070140696" y2="156"/><line stroke="#999" stroke-opacity="0.5" x1="254.12274862557146" y1="169" x2="254.12274862557146" y2="169"/><line stroke="#999" stroke-opacity="0.5" x1="254.12274862557146" y1="169" x2="222.51399385448562" y2="195"/><line stroke="#999" stroke-opacity="0.5" x1="254.12274862557146" y1="169" x2="261.21175125821287" y2="221"/><line stroke="#999" stroke-opacity="0.5" x1="567.9452890577865" y1="182" x2="567.9452890577865" y2="182"/><line stroke="#999" stroke-opacity="0.5" x1="222.51399385448562" y1="195" x2="222.51399385448562" y2="195"/><line stroke="#999" stroke-opacity="0.5" x1="222.51399385448562" y1="195" x2="261.21175125821287" y2="221"/><line stroke="#999" stroke-opacity="0.5" x1="222.51399385448562" y1="195" x2="217.8775768960207" y2="247"/><line stroke="#999" stroke-opacity="0.5" x1="237.55015536869436" y1="208" x2="237.55015536869436" y2="208"/><line stroke="#999" stroke-opacity="0.5" x1="237.55015536869436" y1="208" x2="261.21175125821287" y2="221"/><line stroke="#999" stroke-opacity="0.5" x1="261.21175125821287" y1="221" x2="261.21175125821287" y2="221"/><line stroke="#999" stroke-opacity="0.5" x1="261.21175125821287" y1="221" x2="217.8775768960207" y2="247"/><line stroke="#999" stroke-opacity="0.5" x1="176.0371310072679" y1="234" x2="176.0371310072679" y2="234"/><line stroke="#999" stroke-opacity="0.5" x1="176.0371310072679" y1="234" x2="217.8775768960207" y2="247"/><line stroke="#999" stroke-opacity="0.5" x1="217.8775768960207" y1="247" x2="217.8775768960207" y2="247"/><line stroke="#999" stroke-opacity="0.5" x1="90.43738315577077" y1="260" x2="90.43738315577077" y2="260"/><line stroke="#999" stroke-opacity="0.5" x1="53.48052657731564" y1="273" x2="53.48052657731564" y2="273"/><line stroke="#999" stroke-opacity="0.5" x1="53.48052657731564" y1="273" x2="14.26294746000414" y2="299"/><line stroke="#999" stroke-opacity="0.5" x1="53.48052657731564" y1="273" x2="109.5223729565994" y2="325"/><line stroke="#999" stroke-opacity="0.5" x1="212.8237388099497" y1="286" x2="212.8237388099497" y2="286"/><line stroke="#999" stroke-opacity="0.5" x1="212.8237388099497" y1="286" x2="175.74060157933496" y2="338"/><line stroke="#999" stroke-opacity="0.5" x1="212.8237388099497" y1="286" x2="226.26168721756633" y2="351"/><line stroke="#999" stroke-opacity="0.5" x1="212.8237388099497" y1="286" x2="209.5761310490638" y2="364"/><line stroke="#999" stroke-opacity="0.5" x1="14.26294746000414" y1="299" x2="14.26294746000414" y2="299"/><line stroke="#999" stroke-opacity="0.5" x1="396.5187299433173" y1="312" x2="396.5187299433173" y2="312"/><line stroke="#999" stroke-opacity="0.5" x1="396.5187299433173" y1="312" x2="399.95362893744664" y2="455"/><line stroke="#999" stroke-opacity="0.5" x1="396.5187299433173" y1="312" x2="376.16480961302244" y2="481"/><line stroke="#999" stroke-opacity="0.5" x1="109.5223729565994" y1="325" x2="109.5223729565994" y2="325"/><line stroke="#999" stroke-opacity="0.5" x1="109.5223729565994" y1="325" x2="175.74060157933496" y2="338"/><line stroke="#999" stroke-opacity="0.5" x1="175.74060157933496" y1="338" x2="175.74060157933496" y2="338"/><line stroke="#999" stroke-opacity="0.5" x1="175.74060157933496" y1="338" x2="226.26168721756633" y2="351"/><line stroke="#999" stroke-opacity="0.5" x1="175.74060157933496" y1="338" x2="209.5761310490638" y2="364"/><line stroke="#999" stroke-opacity="0.5" x1="175.74060157933496" y1="338" x2="185.63972306145044" y2="377"/><line stroke="#999" stroke-opacity="0.5" x1="226.26168721756633" y1="351" x2="226.26168721756633" y2="351"/><line stroke="#999" stroke-opacity="0.5" x1="226.26168721756633" y1="351" x2="209.5761310490638" y2="364"/><line stroke="#999" stroke-opacity="0.5" x1="226.26168721756633" y1="351" x2="185.63972306145044" y2="377"/><line stroke="#999" stroke-opacity="0.5" x1="209.5761310490638" y1="364" x2="209.5761310490638" y2="364"/><line stroke="#999" stroke-opacity="0.5" x1="209.5761310490638" y1="364" x2="185.63972306145044" y2="377"/><line stroke="#999" stroke-opacity="0.5" x1="185.63972306145044" y1="377" x2="185.63972306145044" y2="377"/><line stroke="#999" stroke-opacity="0.5" x1="368.86969942736573" y1="390" x2="368.86969942736573" y2="390"/><line stroke="#999" stroke-opacity="0.5" x1="368.86969942736573" y1="390" x2="320.27833504365344" y2="403"/><line stroke="#999" stroke-opacity="0.5" x1="368.86969942736573" y1="390" x2="352.5877094829815" y2="416"/><line stroke="#999" stroke-opacity="0.5" x1="368.86969942736573" y1="390" x2="347.1724326003424" y2="468"/><line stroke="#999" stroke-opacity="0.5" x1="368.86969942736573" y1="390" x2="376.16480961302244" y2="481"/><line stroke="#999" stroke-opacity="0.5" x1="320.27833504365344" y1="403" x2="320.27833504365344" y2="403"/><line stroke="#999" stroke-opacity="0.5" x1="320.27833504365344" y1="403" x2="352.5877094829815" y2="416"/><line stroke="#999" stroke-opacity="0.5" x1="320.27833504365344" y1="403" x2="268.5612214436874" y2="429"/><line stroke="#999" stroke-opacity="0.5" x1="320.27833504365344" y1="403" x2="347.1724326003424" y2="468"/><line stroke="#999" stroke-opacity="0.5" x1="320.27833504365344" y1="403" x2="376.16480961302244" y2="481"/><line stroke="#999" stroke-opacity="0.5" x1="320.27833504365344" y1="403" x2="257.23634161247463" y2="494"/><line stroke="#999" stroke-opacity="0.5" x1="352.5877094829815" y1="416" x2="352.5877094829815" y2="416"/><line stroke="#999" stroke-opacity="0.5" x1="352.5877094829815" y1="416" x2="268.5612214436874" y2="429"/><line stroke="#999" stroke-opacity="0.5" x1="352.5877094829815" y1="416" x2="399.95362893744664" y2="455"/><line stroke="#999" stroke-opacity="0.5" x1="352.5877094829815" y1="416" x2="347.1724326003424" y2="468"/><line stroke="#999" stroke-opacity="0.5" x1="352.5877094829815" y1="416" x2="376.16480961302244" y2="481"/><line stroke="#999" stroke-opacity="0.5" x1="268.5612214436874" y1="429" x2="268.5612214436874" y2="429"/><line stroke="#999" stroke-opacity="0.5" x1="268.5612214436874" y1="429" x2="222.35110678538487" y2="442"/><line stroke="#999" stroke-opacity="0.5" x1="268.5612214436874" y1="429" x2="257.23634161247463" y2="494"/><line stroke="#999" stroke-opacity="0.5" x1="268.5612214436874" y1="429" x2="213.65904787093308" y2="507"/><line stroke="#999" stroke-opacity="0.5" x1="222.35110678538487" y1="442" x2="222.35110678538487" y2="442"/><line stroke="#999" stroke-opacity="0.5" x1="222.35110678538487" y1="442" x2="257.23634161247463" y2="494"/><line stroke="#999" stroke-opacity="0.5" x1="222.35110678538487" y1="442" x2="213.65904787093308" y2="507"/><line stroke="#999" stroke-opacity="0.5" x1="399.95362893744664" y1="455" x2="399.95362893744664" y2="455"/><line stroke="#999" stroke-opacity="0.5" x1="399.95362893744664" y1="455" x2="376.16480961302244" y2="481"/><line stroke="#999" stroke-opacity="0.5" x1="347.1724326003424" y1="468" x2="347.1724326003424" y2="468"/><line stroke="#999" stroke-opacity="0.5" x1="347.1724326003424" y1="468" x2="376.16480961302244" y2="481"/><line stroke="#999" stroke-opacity="0.5" x1="376.16480961302244" y1="481" x2="376.16480961302244" y2="481"/><line stroke="#999" stroke-opacity="0.5" x1="257.23634161247463" y1="494" x2="257.23634161247463" y2="494"/><line stroke="#999" stroke-opacity="0.5" x1="257.23634161247463" y1="494" x2="213.65904787093308" y2="507"/><line stroke="#999" stroke-opacity="0.5" x1="257.23634161247463" y1="494" x2="231.5370048035943" y2="520"/><line stroke="#999" stroke-opacity="0.5" x1="213.65904787093308" y1="507" x2="213.65904787093308" y2="507"/><line stroke="#999" stroke-opacity="0.5" x1="213.65904787093308" y1="507" x2="231.5370048035943" y2="520"/><line stroke="#999" stroke-opacity="0.5" x1="231.5370048035943" y1="520" x2="231.5370048035943" y2="520"/><line stroke="#999" stroke-opacity="0.5" x1="411.5806400448429" y1="533" x2="411.5806400448429" y2="533"/><line stroke="#999" stroke-opacity="0.5" x1="411.5806400448429" y1="533" x2="377.10412666742747" y2="546"/><line stroke="#999" stroke-opacity="0.5" x1="411.5806400448429" y1="533" x2="412.7904272243615" y2="559"/><line stroke="#999" stroke-opacity="0.5" x1="377.10412666742747" y1="546" x2="377.10412666742747" y2="546"/><line stroke="#999" stroke-opacity="0.5" x1="377.10412666742747" y1="546" x2="412.7904272243615" y2="559"/><line stroke="#999" stroke-opacity="0.5" x1="412.7904272243615" y1="559" x2="412.7904272243615" y2="559"/><line stroke="#999" stroke-opacity="0.5" x1="107.61467355194954" y1="572" x2="107.61467355194954" y2="572"/><line stroke="#999" stroke-opacity="0.5" x1="107.61467355194954" y1="572" x2="155.25392967758913" y2="585"/><line stroke="#999" stroke-opacity="0.5" x1="107.61467355194954" y1="572" x2="80.76319445223652" y2="611"/><line stroke="#999" stroke-opacity="0.5" x1="107.61467355194954" y1="572" x2="115.10519757551666" y2="637"/><line stroke="#999" stroke-opacity="0.5" x1="155.25392967758913" y1="585" x2="155.25392967758913" y2="585"/><line stroke="#999" stroke-opacity="0.5" x1="155.25392967758913" y1="585" x2="197.29691006460544" y2="598"/><line stroke="#999" stroke-opacity="0.5" x1="197.29691006460544" y1="598" x2="197.29691006460544" y2="598"/><line stroke="#999" stroke-opacity="0.5" x1="80.76319445223652" y1="611" x2="80.76319445223652" y2="611"/><line stroke="#999" stroke-opacity="0.5" x1="149.83168025265476" y1="624" x2="149.83168025265476" y2="624"/><line stroke="#999" stroke-opacity="0.5" x1="149.83168025265476" y1="624" x2="115.10519757551666" y2="637"/><line stroke="#999" stroke-opacity="0.5" x1="115.10519757551666" y1="637" x2="115.10519757551666" y2="637"/><line stroke="#999" stroke-opacity="0.5" x1="248.84523866693672" y1="650" x2="248.84523866693672" y2="650"/></g><g class="nodes"><g transform="translate(223.84190404057784,13)"><circle r="5" fill="black" stroke="#fff" stroke-width="1px"/><text x="6" y="3">WY</text><title>WY</title></g><g transform="translate(176.48414156159055,26)"><circle r="5" fill="black" stroke="#fff" stroke-width="1px"/><text x="6" y="3">VA</text><title>VA</title></g><g transform="translate(205.5145715726434,39)"><circle r="5" fill="black" stroke="#fff" stroke-width="1px"/><text x="6" y="3">DC</text><title>DC</title></g><g transform="translate(314.5015831074116,52)"><circle r="5" fill="black" stroke="#fff" stroke-width="1px"/><text x="6" y="3">WV</text><title>WV</title></g><g transform="translate(189.1437111144486,65)"><circle r="5" fill="black" stroke="#fff" stroke-width="1px"/><text x="6" y="3">NY</text><title>NY</title></g><g transform="translate(263.58096496226426,78)"><circle r="5" fill="black" stroke="#fff" stroke-width="1px"/><text x="6" y="3">NJ</text><title>NJ</title></g><g transform="translate(340.8262494148169,91)"><circle r="5" fill="black" stroke="#fff" stroke-width="1px"/><text x="6" y="3">MD</text><title>MD</title></g><g transform="translate(10,104)"><circle r="5" fill="black" stroke="#fff" stroke-width="1px"/><text x="6" y="3">SC</text><title>SC</title></g><g transform="translate(402.2750507112104,117)"><circle r="5" fill="black" stroke="#fff" stroke-width="1px"/><text x="6" y="3">CO</text><title>CO</title></g><g transform="translate(361.46234443815615,130)"><circle r="5" fill="black" stroke="#fff" stroke-width="1px"/><text x="6" y="3">NH</text><title>NH</title></g><g transform="translate(432.325460524094,143)"><circle r="5" fill="black" stroke="#fff" stroke-width="1px"/><text x="6" y="3">IL</text><title>IL</title></g><g transform="translate(359.02234070140696,156)"><circle r="5" fill="black" stroke="#fff" stroke-width="1px"/><text x="6" y="3">MI</text><title>MI</title></g><g transform="translate(254.12274862557146,169)"><circle r="5" fill="black" stroke="#fff" stroke-width="1px"/><text x="6" y="3">PA</text><title>PA</title></g><g transform="translate(450,182)"><circle r="5" fill="black" stroke="#fff" stroke-width="1px"/><text x="6" y="3">WI</text><title>WI</title></g><g transform="translate(222.51399385448562,195)"><circle r="5" fill="black" stroke="#fff" stroke-width="1px"/><text x="6" y="3">NC</text><title>NC</title></g><g transform="translate(237.55015536869436,208)"><circle r="5" fill="black" stroke="#fff" stroke-width="1px"/><text x="6" y="3">TX</text><title>TX</title></g><g transform="translate(261.21175125821287,221)"><circle r="5" fill="black" stroke="#fff" stroke-width="1px"/><text x="6" y="3">MA</text><title>MA</title></g><g transform="translate(176.0371310072679,234)"><circle r="5" fill="black" stroke="#fff" stroke-width="1px"/><text x="6" y="3">OH</text><title>OH</title></g><g transform="translate(217.8775768960207,247)"><circle r="5" fill="black" stroke="#fff" stroke-width="1px"/><text x="6" y="3">IN</text><title>IN</title></g><g transform="translate(90.43738315577077,260)"><circle r="5" fill="black" stroke="#fff" stroke-width="1px"/><text x="6" y="3">GA</text><title>GA</title></g><g transform="translate(53.48052657731564,273)"><circle r="5" fill="black" stroke="#fff" stroke-width="1px"/><text x="6" y="3">MN</text><title>MN</title></g><g transform="translate(212.8237388099497,286)"><circle r="5" fill="black" stroke="#fff" stroke-width="1px"/><text x="6" y="3">OK</text><title>OK</title></g><g transform="translate(14.26294746000414,299)"><circle r="5" fill="black" stroke="#fff" stroke-width="1px"/><text x="6" y="3">MO</text><title>MO</title></g><g transform="translate(396.5187299433173,312)"><circle r="5" fill="black" stroke="#fff" stroke-width="1px"/><text x="6" y="3">LA</text><title>LA</title></g><g transform="translate(109.5223729565994,325)"><circle r="5" fill="black" stroke="#fff" stroke-width="1px"/><text x="6" y="3">AR</text><title>AR</title></g><g transform="translate(175.74060157933496,338)"><circle r="5" fill="black" stroke="#fff" stroke-width="1px"/><text x="6" y="3">CT</text><title>CT</title></g><g transform="translate(226.26168721756633,351)"><circle r="5" fill="black" stroke="#fff" stroke-width="1px"/><text x="6" y="3">FL</text><title>FL</title></g><g transform="translate(209.5761310490638,364)"><circle r="5" fill="black" stroke="#fff" stroke-width="1px"/><text x="6" y="3">IA</text><title>IA</title></g><g transform="translate(185.63972306145044,377)"><circle r="5" fill="black" stroke="#fff" stroke-width="1px"/><text x="6" y="3">KY</text><title>KY</title></g><g transform="translate(368.86969942736573,390)"><circle r="5" fill="black" stroke="#fff" stroke-width="1px"/><text x="6" y="3">NE</text><title>NE</title></g><g transform="translate(320.27833504365344,403)"><circle r="5" fill="black" stroke="#fff" stroke-width="1px"/><text x="6" y="3">UT</text><title>UT</title></g><g transform="translate(352.5877094829815,416)"><circle r="5" fill="black" stroke="#fff" stroke-width="1px"/><text x="6" y="3">VT</text><title>VT</title></g><g transform="translate(268.5612214436874,429)"><circle r="5" fill="black" stroke="#fff" stroke-width="1px"/><text x="6" y="3">TN</text><title>TN</title></g><g transform="translate(222.35110678538487,442)"><circle r="5" fill="black" stroke="#fff" stroke-width="1px"/><text x="6" y="3">AL</text><title>AL</title></g><g transform="translate(399.95362893744664,455)"><circle r="5" fill="black" stroke="#fff" stroke-width="1px"/><text x="6" y="3">AZ</text><title>AZ</title></g><g transform="translate(347.1724326003424,468)"><circle r="5" fill="black" stroke="#fff" stroke-width="1px"/><text x="6" y="3">DE</text><title>DE</title></g><g transform="translate(376.16480961302244,481)"><circle r="5" fill="black" stroke="#fff" stroke-width="1px"/><text x="6" y="3">NV</text><title>NV</title></g><g transform="translate(257.23634161247463,494)"><circle r="5" fill="black" stroke="#fff" stroke-width="1px"/><text x="6" y="3">ID</text><title>ID</title></g><g transform="translate(213.65904787093308,507)"><circle r="5" fill="black" stroke="#fff" stroke-width="1px"/><text x="6" y="3">SD</text><title>SD</title></g><g transform="translate(231.5370048035943,520)"><circle r="5" fill="black" stroke="#fff" stroke-width="1px"/><text x="6" y="3">KS</text><title>KS</title></g><g transform="translate(411.5806400448429,533)"><circle r="5" fill="black" stroke="#fff" stroke-width="1px"/><text x="6" y="3">ND</text><title>ND</title></g><g transform="translate(377.10412666742747,546)"><circle r="5" fill="black" stroke="#fff" stroke-width="1px"/><text x="6" y="3">CA</text><title>CA</title></g><g transform="translate(412.7904272243615,559)"><circle r="5" fill="black" stroke="#fff" stroke-width="1px"/><text x="6" y="3">NM</text><title>NM</title></g><g transform="translate(107.61467355194954,572)"><circle r="5" fill="black" stroke="#fff" stroke-width="1px"/><text x="6" y="3">HI</text><title>HI</title></g><g transform="translate(155.25392967758913,585)"><circle r="5" fill="black" stroke="#fff" stroke-width="1px"/><text x="6" y="3">MS</text><title>MS</title></g><g transform="translate(197.29691006460544,598)"><circle r="5" fill="black" stroke="#fff" stroke-width="1px"/><text x="6" y="3">OR</text><title>OR</title></g><g transform="translate(80.76319445223652,611)"><circle r="5" fill="black" stroke="#fff" stroke-width="1px"/><text x="6" y="3">WA</text><title>WA</title></g><g transform="translate(149.83168025265476,624)"><circle r="5" fill="black" stroke="#fff" stroke-width="1px"/><text x="6" y="3">ME</text><title>ME</title></g><g transform="translate(115.10519757551666,637)"><circle r="5" fill="black" stroke="#fff" stroke-width="1px"/><text x="6" y="3">MT</text><title>MT</title></g><g transform="translate(248.84523866693672,650)"><circle r="5" fill="black" stroke="#fff" stroke-width="1px"/><text x="6" y="3">AK</text><title>AK</title></g></g></svg>