<?xml version="1.0" standalone="no"?><!DOCTYPE svg PUBLIC "-//W3C//DTD SVG 1.1//EN" "http://www.w3.org/Graphics/SVG/1.1/DTD/svg11.dtd"><svg width="500" height="1000" version="1.1" xmlns="http://www.w3.org/2000/svg" xmlns:xlink="http://www.w3.org/1999/xlink"><defs xmlns="http://www.w3.org/1999/xhtml"><style type="text/css"><![CDATA[
text { font-family: sans-serif; font-size: 10px; }]]></style></defs><rect class="guide" x="0" y="6.5" width="500" height="13" fill="#eee"/><rect class="guide" x="0" y="32.5" width="500" height="13" fill="#eee"/><rect class="guide" x="0" y="58.5" width="500" height="13" fill="#eee"/><rect class="guide" x="0" y="84.5" width="500" height="13" fill="#eee"/><rect class="guide" x="0" y="110.5" width="500" height="13" fill="#eee"/><rect class="guide" x="0" y="136.5" width="500" height="13" fill="#eee"/><rect class="guide" x="0" y="162.5" width="500" height="13" fill="#eee"/><rect class="guide" x="0" y="188.5" width="500" height="13" fill="#eee"/><rect class="guide" x="0" y="214.5" width="500" height="13" fill="#eee"/><rect class="guide" x="0" y="240.5" width="500" height="13" fill="#eee"/><rect class="guide" x="0" y="266.5" width="500" height="13" fill="#eee"/><rect class="guide" x="0" y="292.5" width="500" height="13" fill="#eee"/><rect class="guide" x="0" y="318.5" width="500" height="13" fill="#eee"/><rect class="guide" x="0" y="344.5" width="500" height="13" fill="#eee"/><rect class="guide" x="0" y="370.5" width="500" height="13" fill="#eee"/><rect class="guide" x="0" y="396.5" width="500" height="13" fill="#eee"/><rect class="guide" x="0" y="422.5" width="500" height="13" fill="#eee"/><rect class="guide" x="0" y="448.5" width="500" height="13" fill="#eee"/><rect class="guide" x="0" y="474.5" width="500" height="13" fill="#eee"/><rect class="guide" x="0" y="500.5" width="500" height="13" fill="#eee"/><rect class="guide" x="0" y="526.5" width="500" height="13" fill="#eee"/><rect class="guide" x="0" y="552.5" width="500" height="13" fill="#eee"/><rect class="guide" x="0" y="578.5" width="500" height="13" fill="#eee"/><rect class="guide" x="0" y="604.5" width="500" height="13" fill="#eee"/><rect class="guide" x="0" y="630.5" width="500" height="13" fill="#eee"/><g class="links"><line stroke="#999" stroke-opacity="0.5" x1="334.6443409981869" y1="13" x2="334.6443409981869" y2="13"/><line stroke="#999" stroke-opacity="0.5" x1="187.9593798471771" y1="26" x2="187.9593798471771" y2="26"/><line stroke="#999" stroke-opacity="0.5" x1="221.9433162207301" y1="39" x2="187.9593798471771" y2="26"/><line stroke="#999" stroke-opacity="0.5" x1="221.9433162207301" y1="39" x2="221.9433162207301" y2="39"/><line stroke="#999" stroke-opacity="0.5" x1="438.4353067216861" y1="52" x2="438.4353067216861" y2="52"/><line stroke="#999" stroke-opacity="0.5" x1="107.0945465532848" y1="65" x2="107.0945465532848" y2="65"/><line stroke="#999" stroke-opacity="0.5" x1="144.96719100245633" y1="78" x2="107.0945465532848" y2="65"/><line stroke="#999" stroke-opacity="0.5" x1="101.33441125152878" y1="104" x2="107.0945465532848" y2="65"/><line stroke="#999" stroke-opacity="0.5" x1="144.96719100245633" y1="78" x2="144.96719100245633" y2="78"/><line stroke="#999" stroke-opacity="0.5" x1="122.60860028132414" y1="91" x2="144.96719100245633" y2="78"/><line stroke="#999" stroke-opacity="0.5" x1="101.33441125152878" y1="104" x2="144.96719100245633" y2="78"/><line stroke="#999" stroke-opacity="0.5" x1="122.60860028132414" y1="91" x2="122.60860028132414" y2="91"/><line stroke="#999" stroke-opacity="0.5" x1="101.33441125152878" y1="104" x2="101.33441125152878" y2="104"/><line stroke="#999" stroke-opacity="0.5" x1="141.30956983768738" y1="130" x2="101.33441125152878" y2="104"/><line stroke="#999" stroke-opacity="0.5" x1="121.79048118843508" y1="156" x2="101.33441125152878" y2="104"/><line stroke="#999" stroke-opacity="0.5" x1="85.06484849148207" y1="169" x2="101.33441125152878" y2="104"/><line stroke="#999" stroke-opacity="0.5" x1="516.1874994652711" y1="117" x2="516.1874994652711" y2="117"/><line stroke="#999" stroke-opacity="0.5" x1="141.30956983768738" y1="130" x2="141.30956983768738" y2="130"/><line stroke="#999" stroke-opacity="0.5" x1="121.79048118843508" y1="156" x2="141.30956983768738" y2="130"/><line stroke="#999" stroke-opacity="0.5" x1="165.2340226600712" y1="195" x2="141.30956983768738" y2="130"/><line stroke="#999" stroke-opacity="0.5" x1="178.5722341936908" y1="143" x2="178.5722341936908" y2="143"/><line stroke="#999" stroke-opacity="0.5" x1="121.79048118843508" y1="156" x2="178.5722341936908" y2="143"/><line stroke="#999" stroke-opacity="0.5" x1="203.29146748842518" y1="182" x2="178.5722341936908" y2="143"/><line stroke="#999" stroke-opacity="0.5" x1="165.2340226600712" y1="195" x2="178.5722341936908" y2="143"/><line stroke="#999" stroke-opacity="0.5" x1="121.79048118843508" y1="156" x2="121.79048118843508" y2="156"/><line stroke="#999" stroke-opacity="0.5" x1="85.06484849148207" y1="169" x2="121.79048118843508" y2="156"/><line stroke="#999" stroke-opacity="0.5" x1="85.06484849148207" y1="169" x2="85.06484849148207" y2="169"/><line stroke="#999" stroke-opacity="0.5" x1="203.29146748842518" y1="182" x2="203.29146748842518" y2="182"/><line stroke="#999" stroke-opacity="0.5" x1="165.2340226600712" y1="195" x2="203.29146748842518" y2="182"/><line stroke="#999" stroke-opacity="0.5" x1="165.2340226600712" y1="195" x2="165.2340226600712" y2="195"/><line stroke="#999" stroke-opacity="0.5" x1="330.21409016243973" y1="208" x2="330.21409016243973" y2="208"/><line stroke="#999" stroke-opacity="0.5" x1="305.0962921298439" y1="234" x2="330.21409016243973" y2="208"/><line stroke="#999" stroke-opacity="0.5" x1="339.342941015157" y1="247" x2="330.21409016243973" y2="208"/><line stroke="#999" stroke-opacity="0.5" x1="321.3999672079476" y1="260" x2="330.21409016243973" y2="208"/><line stroke="#999" stroke-opacity="0.5" x1="357.2348234264128" y1="221" x2="357.2348234264128" y2="221"/><line stroke="#999" stroke-opacity="0.5" x1="321.3999672079476" y1="260" x2="357.2348234264128" y2="221"/><line stroke="#999" stroke-opacity="0.5" x1="305.0962921298439" y1="234" x2="305.0962921298439" y2="234"/><line stroke="#999" stroke-opacity="0.5" x1="339.342941015157" y1="247" x2="305.0962921298439" y2="234"/><line stroke="#999" stroke-opacity="0.5" x1="321.3999672079476" y1="260" x2="305.0962921298439" y2="234"/><line stroke="#999" stroke-opacity="0.5" x1="339.342941015157" y1="247" x2="339.342941015157" y2="247"/><line stroke="#999" stroke-opacity="0.5" x1="321.3999672079476" y1="260" x2="339.342941015157" y2="247"/><line stroke="#999" stroke-opacity="0.5" x1="273.5883564092366" y1="286" x2="339.342941015157" y2="247"/><line stroke="#999" stroke-opacity="0.5" x1="321.3999672079476" y1="260" x2="321.3999672079476" y2="260"/><line stroke="#999" stroke-opacity="0.5" x1="267.2181939321749" y1="273" x2="321.3999672079476" y2="260"/><line stroke="#999" stroke-opacity="0.5" x1="267.2181939321749" y1="273" x2="267.2181939321749" y2="273"/><line stroke="#999" stroke-opacity="0.5" x1="273.5883564092366" y1="286" x2="267.2181939321749" y2="273"/><line stroke="#999" stroke-opacity="0.5" x1="273.5883564092366" y1="286" x2="273.5883564092366" y2="286"/><line stroke="#999" stroke-opacity="0.5" x1="216.76617396525793" y1="312" x2="273.5883564092366" y2="286"/><line stroke="#999" stroke-opacity="0.5" x1="227.26129057652335" y1="377" x2="273.5883564092366" y2="286"/><line stroke="#999" stroke-opacity="0.5" x1="191.64650590630586" y1="299" x2="191.64650590630586" y2="299"/><line stroke="#999" stroke-opacity="0.5" x1="216.76617396525793" y1="312" x2="191.64650590630586" y2="299"/><line stroke="#999" stroke-opacity="0.5" x1="224.51292750288607" y1="338" x2="191.64650590630586" y2="299"/><line stroke="#999" stroke-opacity="0.5" x1="227.26129057652335" y1="377" x2="191.64650590630586" y2="299"/><line stroke="#999" stroke-opacity="0.5" x1="216.76617396525793" y1="312" x2="216.76617396525793" y2="312"/><line stroke="#999" stroke-opacity="0.5" x1="224.51292750288607" y1="338" x2="216.76617396525793" y2="312"/><line stroke="#999" stroke-opacity="0.5" x1="227.26129057652335" y1="377" x2="216.76617396525793" y2="312"/><line stroke="#999" stroke-opacity="0.5" x1="256.89666483235817" y1="325" x2="256.89666483235817" y2="325"/><line stroke="#999" stroke-opacity="0.5" x1="224.51292750288607" y1="338" x2="256.89666483235817" y2="325"/><line stroke="#999" stroke-opacity="0.5" x1="273.92252722730245" y1="351" x2="256.89666483235817" y2="325"/><line stroke="#999" stroke-opacity="0.5" x1="241.33026649750028" y1="364" x2="256.89666483235817" y2="325"/><line stroke="#999" stroke-opacity="0.5" x1="227.26129057652335" y1="377" x2="256.89666483235817" y2="325"/><line stroke="#999" stroke-opacity="0.5" x1="266.0132252437068" y1="416" x2="256.89666483235817" y2="325"/><line stroke="#999" stroke-opacity="0.5" x1="224.51292750288607" y1="338" x2="224.51292750288607" y2="338"/><line stroke="#999" stroke-opacity="0.5" x1="273.92252722730245" y1="351" x2="224.51292750288607" y2="338"/><line stroke="#999" stroke-opacity="0.5" x1="241.33026649750028" y1="364" x2="224.51292750288607" y2="338"/><line stroke="#999" stroke-opacity="0.5" x1="227.26129057652335" y1="377" x2="224.51292750288607" y2="338"/><line stroke="#999" stroke-opacity="0.5" x1="269.8079073286563" y1="390" x2="224.51292750288607" y2="338"/><line stroke="#999" stroke-opacity="0.5" x1="219.14849631915303" y1="403" x2="224.51292750288607" y2="338"/><line stroke="#999" stroke-opacity="0.5" x1="266.0132252437068" y1="416" x2="224.51292750288607" y2="338"/><line stroke="#999" stroke-opacity="0.5" x1="242.0215520231097" y1="429" x2="224.51292750288607" y2="338"/><line stroke="#999" stroke-opacity="0.5" x1="229.25550877527547" y1="442" x2="224.51292750288607" y2="338"/><line stroke="#999" stroke-opacity="0.5" x1="273.92252722730245" y1="351" x2="273.92252722730245" y2="351"/><line stroke="#999" stroke-opacity="0.5" x1="241.33026649750028" y1="364" x2="273.92252722730245" y2="351"/><line stroke="#999" stroke-opacity="0.5" x1="227.26129057652335" y1="377" x2="273.92252722730245" y2="351"/><line stroke="#999" stroke-opacity="0.5" x1="269.8079073286563" y1="390" x2="273.92252722730245" y2="351"/><line stroke="#999" stroke-opacity="0.5" x1="266.0132252437068" y1="416" x2="273.92252722730245" y2="351"/><line stroke="#999" stroke-opacity="0.5" x1="241.33026649750028" y1="364" x2="241.33026649750028" y2="364"/><line stroke="#999" stroke-opacity="0.5" x1="269.8079073286563" y1="390" x2="241.33026649750028" y2="364"/><line stroke="#999" stroke-opacity="0.5" x1="219.14849631915303" y1="403" x2="241.33026649750028" y2="364"/><line stroke="#999" stroke-opacity="0.5" x1="266.0132252437068" y1="416" x2="241.33026649750028" y2="364"/><line stroke="#999" stroke-opacity="0.5" x1="242.0215520231097" y1="429" x2="241.33026649750028" y2="364"/><line stroke="#999" stroke-opacity="0.5" x1="229.25550877527547" y1="442" x2="241.33026649750028" y2="364"/><line stroke="#999" stroke-opacity="0.5" x1="227.26129057652335" y1="377" x2="227.26129057652335" y2="377"/><line stroke="#999" stroke-opacity="0.5" x1="266.0132252437068" y1="416" x2="227.26129057652335" y2="377"/><line stroke="#999" stroke-opacity="0.5" x1="269.8079073286563" y1="390" x2="269.8079073286563" y2="390"/><line stroke="#999" stroke-opacity="0.5" x1="219.14849631915303" y1="403" x2="269.8079073286563" y2="390"/><line stroke="#999" stroke-opacity="0.5" x1="266.0132252437068" y1="416" x2="269.8079073286563" y2="390"/><line stroke="#999" stroke-opacity="0.5" x1="242.0215520231097" y1="429" x2="269.8079073286563" y2="390"/><line stroke="#999" stroke-opacity="0.5" x1="229.25550877527547" y1="442" x2="269.8079073286563" y2="390"/><line stroke="#999" stroke-opacity="0.5" x1="295.72721578412626" y1="455" x2="269.8079073286563" y2="390"/><line stroke="#999" stroke-opacity="0.5" x1="258.371459826473" y1="468" x2="269.8079073286563" y2="390"/><line stroke="#999" stroke-opacity="0.5" x1="268.1306554126687" y1="481" x2="269.8079073286563" y2="390"/><line stroke="#999" stroke-opacity="0.5" x1="290.8089058153215" y1="494" x2="269.8079073286563" y2="390"/><line stroke="#999" stroke-opacity="0.5" x1="265.67101072446616" y1="507" x2="269.8079073286563" y2="390"/><line stroke="#999" stroke-opacity="0.5" x1="219.14849631915303" y1="403" x2="219.14849631915303" y2="403"/><line stroke="#999" stroke-opacity="0.5" x1="266.0132252437068" y1="416" x2="219.14849631915303" y2="403"/><line stroke="#999" stroke-opacity="0.5" x1="229.25550877527547" y1="442" x2="219.14849631915303" y2="403"/><line stroke="#999" stroke-opacity="0.5" x1="266.0132252437068" y1="416" x2="266.0132252437068" y2="416"/><line stroke="#999" stroke-opacity="0.5" x1="242.0215520231097" y1="429" x2="266.0132252437068" y2="416"/><line stroke="#999" stroke-opacity="0.5" x1="229.25550877527547" y1="442" x2="266.0132252437068" y2="416"/><line stroke="#999" stroke-opacity="0.5" x1="295.72721578412626" y1="455" x2="266.0132252437068" y2="416"/><line stroke="#999" stroke-opacity="0.5" x1="268.1306554126687" y1="481" x2="266.0132252437068" y2="416"/><line stroke="#999" stroke-opacity="0.5" x1="290.8089058153215" y1="494" x2="266.0132252437068" y2="416"/><line stroke="#999" stroke-opacity="0.5" x1="242.0215520231097" y1="429" x2="242.0215520231097" y2="429"/><line stroke="#999" stroke-opacity="0.5" x1="229.25550877527547" y1="442" x2="242.0215520231097" y2="429"/><line stroke="#999" stroke-opacity="0.5" x1="268.1306554126687" y1="481" x2="242.0215520231097" y2="429"/><line stroke="#999" stroke-opacity="0.5" x1="229.25550877527547" y1="442" x2="229.25550877527547" y2="442"/><line stroke="#999" stroke-opacity="0.5" x1="268.1306554126687" y1="481" x2="229.25550877527547" y2="442"/><line stroke="#999" stroke-opacity="0.5" x1="290.8089058153215" y1="494" x2="229.25550877527547" y2="442"/><line stroke="#999" stroke-opacity="0.5" x1="295.72721578412626" y1="455" x2="295.72721578412626" y2="455"/><line stroke="#999" stroke-opacity="0.5" x1="258.371459826473" y1="468" x2="295.72721578412626" y2="455"/><line stroke="#999" stroke-opacity="0.5" x1="268.1306554126687" y1="481" x2="295.72721578412626" y2="455"/><line stroke="#999" stroke-opacity="0.5" x1="290.8089058153215" y1="494" x2="295.72721578412626" y2="455"/><line stroke="#999" stroke-opacity="0.5" x1="265.67101072446616" y1="507" x2="295.72721578412626" y2="455"/><line stroke="#999" stroke-opacity="0.5" x1="271.4020803981914" y1="520" x2="295.72721578412626" y2="455"/><line stroke="#999" stroke-opacity="0.5" x1="258.371459826473" y1="468" x2="258.371459826473" y2="468"/><line stroke="#999" stroke-opacity="0.5" x1="268.1306554126687" y1="481" x2="258.371459826473" y2="468"/><line stroke="#999" stroke-opacity="0.5" x1="290.8089058153215" y1="494" x2="258.371459826473" y2="468"/><line stroke="#999" stroke-opacity="0.5" x1="265.67101072446616" y1="507" x2="258.371459826473" y2="468"/><line stroke="#999" stroke-opacity="0.5" x1="271.4020803981914" y1="520" x2="258.371459826473" y2="468"/><line stroke="#999" stroke-opacity="0.5" x1="268.1306554126687" y1="481" x2="268.1306554126687" y2="481"/><line stroke="#999" stroke-opacity="0.5" x1="290.8089058153215" y1="494" x2="268.1306554126687" y2="481"/><line stroke="#999" stroke-opacity="0.5" x1="265.67101072446616" y1="507" x2="268.1306554126687" y2="481"/><line stroke="#999" stroke-opacity="0.5" x1="271.4020803981914" y1="520" x2="268.1306554126687" y2="481"/><line stroke="#999" stroke-opacity="0.5" x1="290.8089058153215" y1="494" x2="290.8089058153215" y2="494"/><line stroke="#999" stroke-opacity="0.5" x1="265.67101072446616" y1="507" x2="290.8089058153215" y2="494"/><line stroke="#999" stroke-opacity="0.5" x1="265.67101072446616" y1="507" x2="265.67101072446616" y2="507"/><line stroke="#999" stroke-opacity="0.5" x1="271.4020803981914" y1="520" x2="271.4020803981914" y2="520"/><line stroke="#999" stroke-opacity="0.5" x1="238.96486837165222" y1="533" x2="271.4020803981914" y2="520"/><line stroke="#999" stroke-opacity="0.5" x1="219.51901323444125" y1="546" x2="271.4020803981914" y2="520"/><line stroke="#999" stroke-opacity="0.5" x1="238.96486837165222" y1="533" x2="238.96486837165222" y2="533"/><line stroke="#999" stroke-opacity="0.5" x1="219.51901323444125" y1="546" x2="238.96486837165222" y2="533"/><line stroke="#999" stroke-opacity="0.5" x1="219.51901323444125" y1="546" x2="219.51901323444125" y2="546"/><line stroke="#999" stroke-opacity="0.5" x1="402.8662513483245" y1="559" x2="402.8662513483245" y2="559"/><line stroke="#999" stroke-opacity="0.5" x1="382.99493401773793" y1="598" x2="402.8662513483245" y2="559"/><line stroke="#999" stroke-opacity="0.5" x1="355.4029634846889" y1="572" x2="355.4029634846889" y2="572"/><line stroke="#999" stroke-opacity="0.5" x1="382.99493401773793" y1="598" x2="355.4029634846889" y2="572"/><line stroke="#999" stroke-opacity="0.5" x1="503.4315259166743" y1="585" x2="503.4315259166743" y2="585"/><line stroke="#999" stroke-opacity="0.5" x1="382.99493401773793" y1="598" x2="382.99493401773793" y2="598"/><line stroke="#999" stroke-opacity="0.5" x1="173.41254359131173" y1="611" x2="173.41254359131173" y2="611"/><line stroke="#999" stroke-opacity="0.5" x1="209.77603352069437" y1="624" x2="173.41254359131173" y2="611"/><line stroke="#999" stroke-opacity="0.5" x1="209.77603352069437" y1="624" x2="209.77603352069437" y2="624"/><line stroke="#999" stroke-opacity="0.5" x1="178.36421921777517" y1="637" x2="209.77603352069437" y2="624"/><line stroke="#999" stroke-opacity="0.5" x1="178.36421921777517" y1="637" x2="178.36421921777517" y2="637"/><line stroke="#999" stroke-opacity="0.5" x1="62.04958273271113" y1="650" x2="62.04958273271113" y2="650"/></g><g class="nodes"><g transform="translate(334.6443409981869,13)"><circle r="5" fill="black" stroke="#fff" stroke-width="1px"/><text x="6" y="3">HI</text><title>HI</title></g><g transform="translate(187.9593798471771,26)"><circle r="5" fill="black" stroke="#fff" stroke-width="1px"/><text x="6" y="3">WY</text><title>WY</title></g><g transform="translate(221.9433162207301,39)"><circle r="5" fill="black" stroke="#fff" stroke-width="1px"/><text x="6" y="3">AK</text><title>AK</title></g><g transform="translate(438.4353067216861,52)"><circle r="5" fill="black" stroke="#fff" stroke-width="1px"/><text x="6" y="3">CA</text><title>CA</title></g><g transform="translate(107.0945465532848,65)"><circle r="5" fill="black" stroke="#fff" stroke-width="1px"/><text x="6" y="3">OR</text><title>OR</title></g><g transform="translate(144.96719100245633,78)"><circle r="5" fill="black" stroke="#fff" stroke-width="1px"/><text x="6" y="3">NV</text><title>NV</title></g><g transform="translate(122.60860028132414,91)"><circle r="5" fill="black" stroke="#fff" stroke-width="1px"/><text x="6" y="3">CO</text><title>CO</title></g><g transform="translate(101.33441125152878,104)"><circle r="5" fill="black" stroke="#fff" stroke-width="1px"/><text x="6" y="3">NY</text><title>NY</title></g><g transform="translate(450,117)"><circle r="5" fill="black" stroke="#fff" stroke-width="1px"/><text x="6" y="3">UT</text><title>UT</title></g><g transform="translate(141.30956983768738,130)"><circle r="5" fill="black" stroke="#fff" stroke-width="1px"/><text x="6" y="3">ID</text><title>ID</title></g><g transform="translate(178.5722341936908,143)"><circle r="5" fill="black" stroke="#fff" stroke-width="1px"/><text x="6" y="3">WA</text><title>WA</title></g><g transform="translate(121.79048118843508,156)"><circle r="5" fill="black" stroke="#fff" stroke-width="1px"/><text x="6" y="3">NH</text><title>NH</title></g><g transform="translate(85.06484849148207,169)"><circle r="5" fill="black" stroke="#fff" stroke-width="1px"/><text x="6" y="3">AZ</text><title>AZ</title></g><g transform="translate(203.29146748842518,182)"><circle r="5" fill="black" stroke="#fff" stroke-width="1px"/><text x="6" y="3">NJ</text><title>NJ</title></g><g transform="translate(165.2340226600712,195)"><circle r="5" fill="black" stroke="#fff" stroke-width="1px"/><text x="6" y="3">MA</text><title>MA</title></g><g transform="translate(330.21409016243973,208)"><circle r="5" fill="black" stroke="#fff" stroke-width="1px"/><text x="6" y="3">VA</text><title>VA</title></g><g transform="translate(357.2348234264128,221)"><circle r="5" fill="black" stroke="#fff" stroke-width="1px"/><text x="6" y="3">FL</text><title>FL</title></g><g transform="translate(305.0962921298439,234)"><circle r="5" fill="black" stroke="#fff" stroke-width="1px"/><text x="6" y="3">TX</text><title>TX</title></g><g transform="translate(339.342941015157,247)"><circle r="5" fill="black" stroke="#fff" stroke-width="1px"/><text x="6" y="3">MD</text><title>MD</title></g><g transform="translate(321.3999672079476,260)"><circle r="5" fill="black" stroke="#fff" stroke-width="1px"/><text x="6" y="3">DC</text><title>DC</title></g><g transform="translate(267.2181939321749,273)"><circle r="5" fill="black" stroke="#fff" stroke-width="1px"/><text x="6" y="3">SC</text><title>SC</title></g><g transform="translate(273.5883564092366,286)"><circle r="5" fill="black" stroke="#fff" stroke-width="1px"/><text x="6" y="3">CT</text><title>CT</title></g><g transform="translate(191.64650590630586,299)"><circle r="5" fill="black" stroke="#fff" stroke-width="1px"/><text x="6" y="3">PA</text><title>PA</title></g><g transform="translate(216.76617396525793,312)"><circle r="5" fill="black" stroke="#fff" stroke-width="1px"/><text x="6" y="3">NC</text><title>NC</title></g><g transform="translate(256.89666483235817,325)"><circle r="5" fill="black" stroke="#fff" stroke-width="1px"/><text x="6" y="3">MT</text><title>MT</title></g><g transform="translate(224.51292750288607,338)"><circle r="5" fill="black" stroke="#fff" stroke-width="1px"/><text x="6" y="3">VT</text><title>VT</title></g><g transform="translate(273.92252722730245,351)"><circle r="5" fill="black" stroke="#fff" stroke-width="1px"/><text x="6" y="3">MI</text><title>MI</title></g><g transform="translate(241.33026649750028,364)"><circle r="5" fill="black" stroke="#fff" stroke-width="1px"/><text x="6" y="3">WI</text><title>WI</title></g><g transform="translate(227.26129057652335,377)"><circle r="5" fill="black" stroke="#fff" stroke-width="1px"/><text x="6" y="3">WV</text><title>WV</title></g><g transform="translate(269.8079073286563,390)"><circle r="5" fill="black" stroke="#fff" stroke-width="1px"/><text x="6" y="3">NM</text><title>NM</title></g><g transform="translate(219.14849631915303,403)"><circle r="5" fill="black" stroke="#fff" stroke-width="1px"/><text x="6" y="3">MN</text><title>MN</title></g><g transform="translate(266.0132252437068,416)"><circle r="5" fill="black" stroke="#fff" stroke-width="1px"/><text x="6" y="3">ME</text><title>ME</title></g><g transform="translate(242.0215520231097,429)"><circle r="5" fill="black" stroke="#fff" stroke-width="1px"/><text x="6" y="3">GA</text><title>GA</title></g><g transform="translate(229.25550877527547,442)"><circle r="5" fill="black" stroke="#fff" stroke-width="1px"/><text x="6" y="3">ND</text><title>ND</title></g><g transform="translate(295.72721578412626,455)"><circle r="5" fill="black" stroke="#fff" stroke-width="1px"/><text x="6" y="3">LA</text><title>LA</title></g><g transform="translate(258.371459826473,468)"><circle r="5" fill="black" stroke="#fff" stroke-width="1px"/><text x="6" y="3">OK</text><title>OK</title></g><g transform="translate(268.1306554126687,481)"><circle r="5" fill="black" stroke="#fff" stroke-width="1px"/><text x="6" y="3">SD</text><title>SD</title></g><g transform="translate(290.8089058153215,494)"><circle r="5" fill="black" stroke="#fff" stroke-width="1px"/><text x="6" y="3">NE</text><title>NE</title></g><g transform="translate(265.67101072446616,507)"><circle r="5" fill="black" stroke="#fff" stroke-width="1px"/><text x="6" y="3">IL</text><title>IL</title></g><g transform="translate(271.4020803981914,520)"><circle r="5" fill="black" stroke="#fff" stroke-width="1px"/><text x="6" y="3">DE</text><title>DE</title></g><g transform="translate(238.96486837165222,533)"><circle r="5" fill="black" stroke="#fff" stroke-width="1px"/><text x="6" y="3">MO</text><title>MO</title></g><g transform="translate(219.51901323444125,546)"><circle r="5" fill="black" stroke="#fff" stroke-width="1px"/><text x="6" y="3">AR</text><title>AR</title></g><g transform="translate(402.8662513483245,559)"><circle r="5" fill="black" stroke="#fff" stroke-width="1px"/><text x="6" y="3">OH</text><title>OH</title></g><g transform="translate(355.4029634846889,572)"><circle r="5" fill="black" stroke="#fff" stroke-width="1px"/><text x="6" y="3">IA</text><title>IA</title></g><g transform="translate(450,585)"><circle r="5" fill="black" stroke="#fff" stroke-width="1px"/><text x="6" y="3">AL</text><title>AL</title></g><g transform="translate(382.99493401773793,598)"><circle r="5" fill="black" stroke="#fff" stroke-width="1px"/><text x="6" y="3">IN</text><title>IN</title></g><g transform="translate(173.41254359131173,611)"><circle r="5" fill="black" stroke="#fff" stroke-width="1px"/><text x="6" y="3">KS</text><title>KS</title></g><g transform="translate(209.77603352069437,624)"><circle r="5" fill="black" stroke="#fff" stroke-width="1px"/><text x="6" y="3">KY</text><title>KY</title></g><g transform="translate(178.36421921777517,637)"><circle r="5" fill="black" stroke="#fff" stroke-width="1px"/><text x="6" y="3">TN</text><title>TN</title></g><g transform="translate(62.04958273271113,650)"><circle r="5" fill="black" stroke="#fff" stroke-width="1px"/><text x="6" y="3">MS</text><title>MS</title></g></g></svg>